<svg width="146" height="135" viewBox="0 0 146 135" fill="none" xmlns="http://www.w3.org/2000/svg">
<path d="M44.6502 114.887L31.9971 117.013C28.8324 117.55 25.5841 116.809 22.9652 114.953C20.3463 113.097 18.5707 110.278 18.0282 107.114L6.49203 35.9694L69.5816 25.3818C69.6149 25.3706 69.6432 25.3478 69.661 25.3175C69.6788 25.2871 69.685 25.2514 69.6785 25.2168C69.6719 25.1823 69.6531 25.1513 69.6254 25.1295C69.5977 25.1078 69.5631 25.0969 69.528 25.0987L6.44613 35.694L5.92593 32.481C5.38491 29.3139 6.12379 26.0617 7.98011 23.4393C9.83643 20.8169 12.6582 19.0391 15.825 18.4968L106.24 3.3268C107.809 3.05351 109.417 3.09281 110.971 3.44245C112.525 3.7921 113.994 4.4452 115.295 5.36426C116.596 6.28333 117.702 7.45026 118.551 8.79807C119.399 10.1459 119.973 11.648 120.24 13.2183L120.775 16.5001L77.5299 23.76C77.4914 23.76 77.4544 23.7753 77.4271 23.8025C77.3999 23.8298 77.3846 23.8668 77.3846 23.9053C77.3846 23.9439 77.3999 23.9808 77.4271 24.0081C77.4544 24.0353 77.4914 24.0507 77.5299 24.0507C77.6064 24.0507 77.7135 24.0507 120.798 16.7832L126.023 49.0356L126.199 48.2705L120.485 13.1418C119.928 9.90671 118.108 7.02541 115.427 5.13169C112.746 3.23796 109.422 2.48691 106.187 3.04375L15.7791 18.229C12.5409 18.7847 9.65519 20.602 7.75499 23.2823C5.85479 25.9627 5.09522 29.2872 5.64288 32.5269L17.7299 107.168C18.2855 110.406 20.1028 113.292 22.7832 115.192C25.4635 117.092 28.7881 117.852 32.0277 117.304L44.6808 115.177C44.7194 115.173 44.7547 115.154 44.7791 115.124C44.8035 115.094 44.8149 115.055 44.8109 115.017C44.8068 114.978 44.7876 114.943 44.7575 114.919C44.7274 114.894 44.6888 114.883 44.6502 114.887Z" fill="#EA7963"/>
<path d="M132.595 87.8211L126.406 49.6476L126.23 50.4126L132.312 87.8976C132.846 91.0622 132.103 94.3095 130.245 96.9269C128.388 99.5443 125.568 101.318 122.405 101.859L49.1638 114.122C49.1312 114.133 49.1035 114.155 49.0858 114.184C49.068 114.214 49.0613 114.249 49.0668 114.283C49.0723 114.317 49.0897 114.348 49.1159 114.37C49.142 114.392 49.1753 114.405 49.2097 114.405L122.458 102.104C125.693 101.546 128.574 99.7304 130.474 97.054C132.373 94.3776 133.136 91.0581 132.595 87.8211Z" fill="#EA7963"/>
<path d="M122.099 66.2634L125.924 49.3722L115.007 49.77L111.09 53.3502C112.462 53.6418 113.795 54.0937 115.061 54.6966C115.597 54.9248 116.089 55.2459 116.514 55.6452C117.111 56.326 113.921 55.3468 112.345 55.1785C112.657 55.3521 112.942 55.5684 113.194 55.8211C113.6 56.2801 111.878 55.6605 110.31 55.4004C110.013 55.3238 109.705 55.2979 109.4 55.3239C110.93 56.0047 113.263 57.2976 113.821 58.2921C114.495 59.5008 111.052 57.1063 108.826 57.0375C110.241 57.6954 111.779 58.5675 112.337 59.6155C113.102 60.9925 110.364 58.4757 107.105 58.3686C110.218 60.2505 111.695 61.8034 107.258 59.8986C106.448 59.5322 105.581 59.3071 104.695 59.233L95.821 67.3573C124.065 66.2481 122.076 66.3628 122.099 66.2634Z" fill="#EA7963"/>
<path d="M129.16 37.5223L122.696 65.988L138.914 48.8367L145.37 20.4093L129.16 37.5223Z" fill="#EA7963"/>
<path d="M51.39 81.9918C49.8991 83.644 47.8145 84.6384 45.5923 84.7574C43.3701 84.8764 41.1912 84.1103 39.5325 82.6267L25.2117 69.7518C26.9612 65.1434 30.365 61.3523 34.7589 59.1183L44.2831 67.6786C50.7474 51.3535 57.64 50.0836 59.8585 48.1864C64.2726 51.6672 66.4069 52.9677 72.1903 54.0463C70.7521 68.2294 71.5095 84.6999 69.2757 94.0405C68.7456 96.2383 67.6784 98.2701 66.1698 99.954L55.98 111.307C51.4675 109.365 47.7086 106.009 45.27 101.744L54.9319 91.0341L57.2805 75.4051C75.9159 54.6583 69.8035 61.4592 51.39 81.9918Z" fill="#FFD1D0"/>
<path d="M116.751 55.4998C116.303 55.0845 115.785 54.7505 115.221 54.513C113.187 53.5108 112.743 53.4879 92.1261 48.4771L86.3198 43.6576C86.4957 42.9462 86.4498 42.4872 86.1744 42.3036C86.0979 42.25 86.4957 42.5943 73.1694 30.5761C72.9095 28.7192 73.077 26.8275 73.659 25.0452C77.7518 26.4834 78.8228 22.8802 77.9736 18.6421C78.1816 18.5077 78.357 18.3286 78.4871 18.1179C78.6172 17.9073 78.6988 17.6703 78.7259 17.4242C78.753 17.178 78.7249 16.929 78.6438 16.695C78.5626 16.4611 78.4304 16.2482 78.2567 16.0717C78.5048 15.9144 78.707 15.6944 78.8428 15.4339C78.9786 15.1734 79.0431 14.8816 79.0299 14.5882C79.0167 14.2947 78.9263 14.0099 78.7676 13.7626C78.609 13.5153 78.3879 13.3144 78.1266 13.18C78.3089 12.9565 78.4303 12.6898 78.4793 12.4057C78.5283 12.1215 78.5031 11.8295 78.4061 11.558C78.3092 11.2864 78.1438 11.0445 77.926 10.8555C77.7082 10.6666 77.4453 10.5371 77.1627 10.4796C77.2542 10.216 77.2777 9.93359 77.2311 9.65851C77.1846 9.38343 77.0694 9.12452 76.8964 8.9057C76.7233 8.68688 76.4979 8.5152 76.2409 8.40654C75.9839 8.29788 75.7037 8.25574 75.4262 8.284C75.4269 8.00617 75.3582 7.73257 75.2263 7.48804C75.0944 7.24351 74.9035 7.03582 74.6709 6.88381C74.4383 6.73181 74.1715 6.64032 73.8946 6.61765C73.6177 6.59498 73.3395 6.64185 73.0853 6.754C73.0031 6.47834 72.8514 6.22846 72.6447 6.02844C72.4379 5.82843 72.1832 5.68501 71.905 5.61199C71.6267 5.53898 71.3344 5.53883 71.0561 5.61156C70.7778 5.68429 70.5229 5.82745 70.316 6.02726C70.1469 5.7763 69.916 5.57319 69.6455 5.43755C69.375 5.30191 69.0741 5.23833 68.7718 5.25294C68.4696 5.26755 68.1762 5.35987 67.92 5.52097C67.6639 5.68207 67.4536 5.90651 67.3095 6.1726C66.9695 5.91054 66.5418 5.78904 66.1147 5.83317C65.6876 5.8773 65.2938 6.08369 65.0145 6.40976C64.9504 6.08771 64.8105 5.78559 64.6062 5.52846C64.402 5.27132 64.1395 5.06658 63.8403 4.93121C63.5411 4.79584 63.214 4.73374 62.8861 4.75007C62.5581 4.7664 62.2388 4.86069 61.9545 5.0251C61.7614 4.66907 61.4716 4.37485 61.1185 4.17633C60.7654 3.97782 60.3635 3.88311 59.9589 3.90309C59.5544 3.92308 59.1637 4.05696 58.8319 4.28931C58.5001 4.52166 58.2407 4.84301 58.0836 5.21635C57.7367 5.04555 57.3484 4.97674 56.9639 5.01791C56.5795 5.05909 56.2146 5.20856 55.9117 5.44894C55.6088 5.68933 55.3803 6.01076 55.2529 6.37585C55.1255 6.74095 55.1044 7.13471 55.1919 7.51135C54.808 7.58776 54.454 7.77247 54.1717 8.04367C53.8894 8.31486 53.6907 8.6612 53.599 9.04175C53.5073 9.4223 53.5264 9.82115 53.6541 10.1912C53.7819 10.5612 54.0129 10.8869 54.3198 11.1298C54.0284 11.3951 53.82 11.7389 53.7196 12.12C53.6193 12.501 53.6313 12.903 53.7542 13.2774C53.8771 13.6517 54.1056 13.9826 54.4123 14.23C54.719 14.4774 55.0907 14.6308 55.4826 14.6718C55.4337 15.0567 55.495 15.4477 55.6595 15.7992C55.8239 16.1507 56.0848 16.4483 56.4117 16.6574C56.7385 16.8665 57.1181 16.9785 57.5061 16.9805C57.8942 16.9824 58.2748 16.8742 58.6038 16.6684C58.741 16.9404 58.9384 17.1775 59.181 17.3618C59.4236 17.546 59.705 17.6725 60.0038 17.7318C59.9407 18.1565 60.0439 18.5891 60.2919 18.9397C60.5398 19.2902 60.9134 19.5316 61.3349 19.6137C61.2465 19.8781 61.2257 20.1604 61.2746 20.4349C61.3235 20.7094 61.4404 20.9673 61.6147 21.1849C61.7889 21.4026 62.015 21.573 62.2721 21.6808C62.5293 21.7885 62.8094 21.83 63.0867 21.8016C63.0869 22.0807 63.1567 22.3553 63.29 22.6006C63.4232 22.8458 63.6156 23.0539 63.8497 23.2059C64.0838 23.3579 64.3521 23.449 64.6304 23.471C64.9086 23.4929 65.1879 23.445 65.4429 23.3316C65.5263 23.6077 65.6798 23.8575 65.8886 24.0566C66.0974 24.2556 66.3542 24.3971 66.634 24.4673C66.9137 24.5374 67.2069 24.5338 67.4849 24.4567C67.7629 24.3797 68.0161 24.2319 68.2199 24.0277C68.5894 24.4403 69.079 24.7266 69.6198 24.8463C67.9904 27.7533 64.9839 30.3619 63.6605 33.1542C60.218 40.414 61.5567 42.8238 59.7437 48.064C56.852 50.1372 50.5637 51.7513 44.2371 67.4032L34.8812 59.0418C34.8517 59.0154 34.8136 59.0008 34.7741 59.0008C34.7346 59.0008 34.6964 59.0154 34.667 59.0418C33.6701 59.5479 32.7203 60.1419 31.8288 60.8166C27.0017 56.9916 26.6192 56.8845 22.7024 52.6081C22.6867 52.5897 22.6663 52.5758 22.6435 52.5677C22.6207 52.5596 22.5961 52.5577 22.5723 52.5622C14.601 53.6256 5.38278 56.3643 1.42008 58.2768C1.39308 58.2862 1.36967 58.3037 1.3531 58.327C1.33654 58.3503 1.32764 58.3782 1.32764 58.4068C1.32764 58.4354 1.33654 58.4633 1.3531 58.4866C1.36967 58.5099 1.39308 58.5275 1.42008 58.5369C7.26872 60.7662 13.5411 61.6627 19.7801 61.1608L26.3514 67.0666C25.9019 67.8511 25.5033 68.6637 25.158 69.4993C25.1207 69.5847 25.1117 69.6798 25.1324 69.7706C25.153 69.8615 25.2022 69.9434 25.2728 70.0042L39.4253 82.7185C41.1115 84.2306 43.3285 85.0121 45.5902 84.8916C47.8518 84.7711 49.9733 83.7585 51.4893 82.0759L57.0891 75.8412L54.7941 90.9576L45.3081 101.53C45.2552 101.587 45.2222 101.659 45.2139 101.736C45.2056 101.814 45.2226 101.891 45.2622 101.958C45.7567 102.785 46.2955 103.584 46.8764 104.353C41.8733 110.473 38.1248 113.946 38.0865 114.16C37.2756 118.941 37.6658 129.827 39.1958 134.815C39.2038 134.841 39.2191 134.865 39.24 134.883C39.2609 134.901 39.2864 134.913 39.3137 134.917C39.341 134.921 39.3688 134.917 39.394 134.906C39.4191 134.894 39.4406 134.876 39.4559 134.853C43.4339 128.244 44.8721 124.143 46.9911 116.922L53.1876 110.037C54.015 110.537 54.8736 110.984 55.758 111.375C55.8239 111.403 55.8965 111.409 55.9662 111.394C56.0359 111.379 56.0993 111.343 56.1482 111.291L66.2768 100.015C67.8016 98.3146 68.8795 96.2614 69.4133 94.0405C71.6318 84.7534 70.9433 68.0917 72.3279 54.0616L73.7814 51.4377L75.7092 53.0671C76.0076 53.3349 76.7802 52.983 77.201 52.5622L82.7549 56.785C84.038 57.7223 85.5492 58.2983 87.1307 58.4527C87.3066 58.4527 104.825 58.9959 107.197 60.0286C108.036 60.4659 108.94 60.7655 109.874 60.916C110.096 60.916 110.134 60.8319 110.172 60.7707C110.387 60.3499 108.857 59.2407 107.679 58.5369C110.387 58.8582 112.269 60.5029 112.628 60.0669C112.751 59.9368 112.628 59.7073 112.536 59.5084C111.813 58.512 110.843 57.721 109.721 57.2134C111.404 57.6036 113.286 58.7434 113.867 58.7434C114.105 58.7434 114.25 58.5598 114.036 58.185C113.462 57.1599 111.741 56.196 110.249 55.5075C111.435 55.7064 112.705 56.0736 113.171 56.0736C113.5 56.0736 113.569 55.867 113.385 55.6528C113.282 55.5389 113.17 55.434 113.049 55.3392C114.227 55.5457 115.818 55.9588 116.445 55.9588C116.889 55.9818 116.95 55.7293 116.751 55.4998ZM85.6848 42.25C84.8051 42.4642 83.5275 43.9101 82.9461 44.6139L82.6631 44.3614C82.6631 44.2773 82.9997 43.2445 82.5177 42.9385L74.3399 35.5563C73.8206 34.0878 73.4515 32.5704 73.2383 31.0275L85.6848 42.25ZM69.8264 25.0681C70.928 23.1403 71.5094 20.7459 70.3925 18.8869C70.3846 18.872 70.3738 18.8588 70.3606 18.8483C70.3475 18.8378 70.3323 18.8301 70.316 18.8257C68.3729 18.1831 69.1685 15.934 70.4613 16.8138C70.9203 17.1351 71.5247 17.4334 71.6624 16.8826C71.6838 16.6604 71.781 16.4524 71.9378 16.2936C72.0957 16.5414 72.3162 16.7431 72.5772 16.8782C72.8381 17.0134 73.1301 17.0772 73.4236 17.0632C73.7171 17.0492 74.0017 16.958 74.2486 16.7986C74.4954 16.6393 74.6958 16.4175 74.8295 16.1559C75.1256 16.3936 75.4939 16.5232 75.8737 16.5232C76.2535 16.5232 76.6218 16.3936 76.9179 16.1559C77.8436 18.405 78.6392 22.8649 76.9179 24.4944C75.9999 25.3435 74.5311 25.2594 72.5421 24.2266C72.4503 24.1731 72.2667 24.2266 72.3891 24.502C72.5115 24.7774 72.6569 25.0834 73.0623 25.9708C72.8186 27.0674 72.7234 28.1919 72.7793 29.3139C71.6318 30.928 69.398 29.1685 67.9445 27.7839C68.6389 26.927 69.268 26.0192 69.8264 25.0681ZM20.3462 61.2526C21.6769 59.1426 23.2937 57.2271 25.1504 55.561C27.1876 57.4742 29.3386 59.2625 31.5917 60.916C29.5354 62.5184 27.808 64.503 26.5044 66.7606L20.3462 61.2526ZM46.8764 116.631C44.7624 115.085 42.895 113.228 41.3378 111.123C43.4262 108.874 45.3617 106.655 47.037 104.613C48.6914 106.695 50.6792 108.489 52.9199 109.922L46.8764 116.631ZM69.1379 93.9793C68.6177 96.1532 67.5663 98.164 66.0779 99.8316L59.2923 107.39C54.9778 105.377 51.3129 102.197 48.7124 98.2098C55.4444 90.7128 55.1078 91.1182 55.1154 91.0417L56.3012 83.1469L68.7171 62.8668C68.731 62.8364 68.7339 62.8021 68.7255 62.7698C68.7171 62.7375 68.6977 62.709 68.6708 62.6893C68.6439 62.6695 68.611 62.6597 68.5776 62.6613C68.5442 62.663 68.5125 62.6761 68.4876 62.6985L51.2828 81.8235C49.8169 83.4483 47.7668 84.4259 45.5815 84.542C43.3962 84.6582 41.254 83.9034 39.6242 82.4431L28.547 72.4981C29.7168 70.3462 31.1201 68.3298 32.7315 66.4852C46.1343 77.0958 45.2316 76.4302 45.3081 76.4302C45.3846 76.4302 45.1781 76.7362 58.4432 57.2517C60.2581 56.7575 61.9598 55.9157 63.4539 54.7731C63.4801 54.7484 63.4962 54.7148 63.4991 54.679C63.502 54.6431 63.4914 54.6074 63.4696 54.5789C63.4477 54.5503 63.4159 54.5309 63.3806 54.5244C63.3452 54.5179 63.3086 54.5247 63.278 54.5436C60.4884 56.617 57.074 57.6751 53.6007 57.5424C53.5622 57.5424 53.5252 57.5577 53.498 57.5849C53.4707 57.6122 53.4554 57.6492 53.4554 57.6877C53.4554 57.7263 53.4707 57.7632 53.498 57.7905C53.5252 57.8177 53.5622 57.8331 53.6007 57.8331C55.0863 57.865 56.5699 57.7056 58.0148 57.3588L45.2699 76.086L32.9228 66.3016C34.3757 64.6848 36.0406 63.2721 37.8723 62.1018L44.1989 67.7781C44.216 67.7914 44.236 67.8006 44.2573 67.8048C44.2787 67.8089 44.3007 67.808 44.3216 67.802C44.3425 67.796 44.3616 67.7852 44.3775 67.7704C44.3934 67.7556 44.4056 67.7373 44.4131 67.7169C50.6249 52.2333 56.7449 50.5503 59.8508 48.3318C64.0812 51.6595 66.2768 53.0442 72.0296 54.1381C70.6143 68.2218 71.3487 84.7075 69.1379 93.9793ZM75.495 52.5163L67.0265 45.3406C66.9997 45.3187 66.9659 45.307 66.9313 45.3078C66.8967 45.3085 66.8635 45.3216 66.8376 45.3447C66.8118 45.3677 66.7951 45.3993 66.7904 45.4336C66.7858 45.4679 66.7935 45.5027 66.8123 45.5319C71.7389 53.1819 72.1137 53.8627 72.1137 53.8627C66.3992 52.7841 64.2266 51.4147 60.0267 48.1099C61.8398 42.8085 60.4934 40.4982 63.9129 33.2842C64.7621 31.4941 66.2997 29.7958 67.7379 28.021C69.1608 29.3751 71.4099 31.1652 72.7793 29.7576C72.9143 31.5993 73.2819 33.4166 73.8732 35.1661L68.8625 30.6679C68.7248 30.5379 68.5335 30.7521 68.6712 30.8821L82.0434 42.8926C80.0468 43.3899 75.365 50.2213 75.495 52.5163ZM113.118 55.8135C112.605 55.8135 110.494 55.1862 109.293 55.125C108.696 54.8739 108.086 54.6568 107.464 54.4747C107.428 54.4702 107.392 54.4793 107.362 54.5003C107.333 54.5213 107.312 54.5527 107.304 54.5882C107.296 54.6237 107.302 54.6609 107.321 54.6922C107.339 54.7236 107.368 54.747 107.403 54.7578C108.788 55.0485 113.355 57.0528 113.837 58.4833C113.383 58.3613 112.942 58.1947 112.521 57.9861C111.381 57.4123 110.153 57.0323 108.887 56.8615C108.038 56.4637 107.296 56.1807 107.005 56.0965C106.972 56.0908 106.938 56.097 106.908 56.1139C106.879 56.1308 106.857 56.1575 106.845 56.1892C106.833 56.2209 106.833 56.2558 106.844 56.2877C106.855 56.3197 106.877 56.3468 106.906 56.3643C108.436 56.9074 111.787 58.3839 112.368 59.8909C111.748 59.7226 109.591 58.315 107.143 58.2232L106.646 57.9249C106.612 57.9056 106.573 57.9004 106.535 57.9104C106.498 57.9205 106.466 57.9449 106.447 57.9784C106.428 58.0119 106.422 58.0516 106.433 58.0889C106.443 58.1262 106.467 58.158 106.5 58.1773C108.673 59.4472 109.775 60.3729 109.889 60.6406C109.767 60.6406 109.247 60.6406 107.304 59.7762C104.886 58.7281 87.8574 58.2003 87.146 58.185C85.6175 58.032 84.1574 57.4748 82.9155 56.5708L76.0305 51.3153C76.872 48.8596 79.5419 44.9811 81.3855 43.6041L88.3853 49.8618C88.4618 49.9306 87.7733 49.7623 108.107 53.7633C109.53 54.1381 112.23 54.8878 113.118 55.8135ZM112.46 54.9873C111.091 54.3306 109.658 53.8178 108.183 53.4573L88.5459 49.6323L83.1909 44.851C83.7243 44.1613 84.3324 43.5327 85.004 42.9768L91.9731 48.7602C91.9731 48.7602 109.622 53.0748 110.54 53.3043C112.121 53.6441 113.661 54.1572 115.13 54.8343C115.654 55.0543 116.136 55.3651 116.553 55.7523C116.032 55.7599 113.653 55.1173 112.46 54.9873Z" fill="#8B1700"/>
<path d="M90.994 17.2192C90.3813 17.2182 89.7817 17.042 89.2658 16.7114C88.75 16.3809 88.3394 15.9097 88.0825 15.3535C87.8256 14.7973 87.7331 14.1792 87.8158 13.5721C87.8986 12.9651 88.1532 12.3943 88.5497 11.9272C88.9461 11.4601 89.4678 11.116 90.0534 10.9356C90.6389 10.7552 91.2638 10.746 91.8544 10.9091C92.4449 11.0721 92.9766 11.4006 93.3867 11.8558C93.7967 12.311 94.0681 12.874 94.1687 13.4784C94.2455 13.9391 94.2208 14.411 94.0965 14.8612C93.9723 15.3114 93.7513 15.7291 93.4491 16.0852C93.1469 16.4413 92.7707 16.7273 92.3467 16.9231C91.9226 17.1189 91.461 17.22 90.994 17.2192ZM88.699 12.3538C88.4279 12.7335 88.2547 13.1742 88.1946 13.6369C88.1345 14.0996 88.1893 14.5699 88.3543 15.0063C88.5193 15.4427 88.7893 15.8317 89.1405 16.1388C89.4916 16.446 89.9131 16.6619 90.3675 16.7673C90.822 16.8728 91.2955 16.8646 91.746 16.7434C92.1966 16.6223 92.6103 16.3919 92.9506 16.0728C93.2909 15.7536 93.5473 15.3555 93.697 14.9137C93.8468 14.4718 93.8853 13.9998 93.8092 13.5396C93.7155 12.9852 93.4593 12.4711 93.073 12.0626C92.6867 11.654 92.1878 11.3694 91.6395 11.2449C91.0912 11.1203 90.5183 11.1614 89.9935 11.3629C89.4686 11.5644 89.0154 11.9173 88.6913 12.3768L88.699 12.3538Z" fill="#EA7963"/>
<path d="M99.2254 15.8575C98.6127 15.8565 98.0131 15.6803 97.4973 15.3497C96.9814 15.0192 96.5709 14.548 96.3139 13.9918C96.057 13.4356 95.9645 12.8175 96.0473 12.2104C96.1301 11.6034 96.3847 11.0326 96.7811 10.5655C97.1776 10.0984 97.6993 9.75433 98.2848 9.57394C98.8703 9.39354 99.4952 9.38432 100.086 9.54735C100.676 9.71039 101.208 10.0389 101.618 10.4941C102.028 10.9493 102.3 11.5123 102.4 12.1167C102.478 12.5776 102.455 13.05 102.331 13.5008C102.207 13.9516 101.986 14.3698 101.684 14.7262C101.381 15.0827 101.004 15.3686 100.58 15.564C100.155 15.7594 99.6929 15.8596 99.2254 15.8575ZM96.9304 10.9921C96.6594 11.3718 96.4861 11.8125 96.426 12.2752C96.3659 12.7378 96.4208 13.2082 96.5857 13.6446C96.7507 14.081 97.0207 14.47 97.3719 14.7771C97.7231 15.0843 98.1445 15.3002 98.599 15.4056C99.0535 15.5111 99.5269 15.5029 99.9775 15.3817C100.428 15.2606 100.842 15.0302 101.182 14.7111C101.522 14.3919 101.779 13.9938 101.928 13.552C102.078 13.1101 102.117 12.6381 102.041 12.1779C101.95 11.6217 101.697 11.105 101.312 10.6935C100.927 10.2821 100.429 9.99444 99.8797 9.86727C99.3308 9.74011 98.7565 9.77917 98.23 9.97949C97.7034 10.1798 97.2483 10.5323 96.9228 10.9921H96.9304Z" fill="#EA7963"/>
<path d="M110.769 10.732C110.665 10.1051 110.378 9.52313 109.943 9.05955C109.509 8.59596 108.947 8.27161 108.328 8.12752C107.709 7.98342 107.061 8.02604 106.467 8.24999C105.872 8.47394 105.357 8.86917 104.987 9.3857C104.617 9.90224 104.409 10.5169 104.388 11.1519C104.367 11.787 104.535 12.4139 104.871 12.9535C105.206 13.4931 105.694 13.9211 106.273 14.1833C106.852 14.4456 107.495 14.5304 108.122 14.427C108.539 14.3592 108.939 14.2097 109.297 13.9871C109.656 13.7645 109.968 13.4731 110.214 13.1298C110.46 12.7864 110.635 12.3978 110.731 11.9863C110.826 11.5748 110.839 11.1485 110.769 10.732Z" fill="#EA7963"/>
<path d="M25.2956 6.68516L21.4706 3.99236L24.1634 0.205608C24.1773 0.175209 24.1802 0.140968 24.1718 0.108646C24.1634 0.0763236 24.1441 0.0478936 24.1171 0.0281393C24.0902 0.008385 24.0573 -0.00148804 24.0239 0.00018181C23.9905 0.00185166 23.9588 0.0149623 23.9339 0.0373077L21.2411 3.86231L17.4161 1.16951C17.2631 1.05476 17.0948 1.29191 17.2478 1.40666L21.0728 4.09181L18.38 7.91681C18.3648 7.93829 18.3556 7.96353 18.3536 7.98981C18.3516 8.01609 18.3567 8.04243 18.3685 8.06601C18.3803 8.08958 18.3983 8.10951 18.4205 8.12366C18.4428 8.1378 18.4684 8.14563 18.4948 8.14631C18.6095 8.14631 18.4336 8.33756 21.31 4.32131C25.3339 7.18241 25.135 7.04471 25.1809 7.04471C25.2286 7.05992 25.2803 7.05558 25.3248 7.03262C25.3693 7.00967 25.4028 6.96999 25.418 6.92231C25.4333 6.87463 25.4289 6.82286 25.406 6.77838C25.383 6.73391 25.3433 6.70037 25.2956 6.68516Z" fill="#EA7963"/>
<path d="M20.4456 78.4039C20.3462 78.3198 21.5931 77.899 1.81022 84.3174C1.78673 84.3261 1.7659 84.3408 1.74976 84.36C1.73361 84.3791 1.7227 84.4022 1.71808 84.4268C1.71346 84.4514 1.71529 84.4768 1.72339 84.5006C1.7315 84.5243 1.7456 84.5455 1.76432 84.5622L7.01987 89.221L0.0430714 96.871C0.0294249 96.8845 0.018592 96.9006 0.0111991 96.9183C0.00380624 96.9361 0 96.9551 0 96.9743C0 96.9935 0.00380624 97.0125 0.0111991 97.0302C0.018592 97.048 0.0294249 97.064 0.0430714 97.0776C4.11287 100.658 3.86807 100.482 3.92927 100.482C3.99047 100.482 3.55442 100.964 11.0132 92.7553L16.2534 97.4142C16.2723 97.4307 16.2952 97.442 16.3197 97.447C16.3443 97.4521 16.3698 97.4507 16.3936 97.443C16.4175 97.4353 16.439 97.4215 16.456 97.4031C16.473 97.3846 16.4849 97.3621 16.4906 97.3377C20.7899 77.3023 20.5374 78.4957 20.4456 78.4039ZM10.8984 92.4876L3.92162 100.138L0.341421 96.9858C7.85372 88.7161 7.35647 89.3358 7.34882 89.1981C7.34117 89.0604 7.65482 89.4123 2.13917 84.5163L13.4076 80.8978L15.978 96.8175L11.0973 92.4723C11.0685 92.449 11.0318 92.4376 10.9948 92.4404C10.9579 92.4432 10.9234 92.4601 10.8984 92.4876Z" fill="#EA7963"/>
<path d="M95.6299 95.2722C95.5534 95.2722 95.561 95.2722 84.3385 91.7838C84.3143 91.7717 84.294 91.7531 84.2798 91.7302C84.2656 91.7072 84.2581 91.6807 84.2581 91.6537C84.2581 91.6267 84.2656 91.6002 84.2798 91.5773C84.294 91.5543 84.3143 91.5357 84.3385 91.5237L93.8015 84.9447C93.8328 84.9306 93.868 84.928 93.9009 84.9373C93.9339 84.9466 93.9625 84.9673 93.9817 84.9956C94.0009 85.024 94.0095 85.0582 94.0059 85.0923C94.0023 85.1263 93.9869 85.158 93.9622 85.1818L84.7822 91.5925L95.6681 94.9968C95.6862 94.9993 95.7036 95.0053 95.7194 95.0146C95.7351 95.0238 95.7489 95.0361 95.7599 95.0506C95.7709 95.0652 95.779 95.0818 95.7836 95.0994C95.7882 95.1171 95.7892 95.1355 95.7867 95.1536C95.7842 95.1717 95.7782 95.1891 95.7689 95.2048C95.7597 95.2206 95.7474 95.2343 95.7329 95.2453C95.7183 95.2564 95.7017 95.2644 95.684 95.269C95.6664 95.2736 95.648 95.2747 95.6299 95.2722Z" fill="#EA7963"/>
<path d="M104.787 93.5356L113.967 86.7577L103.073 83.6977C103.052 83.6958 103.031 83.6893 103.013 83.6786C102.995 83.6679 102.979 83.6533 102.967 83.6357C102.954 83.6182 102.946 83.5982 102.943 83.5772C102.939 83.5561 102.94 83.5346 102.946 83.514C102.952 83.4935 102.962 83.4744 102.976 83.4582C102.99 83.442 103.007 83.4291 103.026 83.4204C103.046 83.4116 103.067 83.4073 103.088 83.4076C103.11 83.4079 103.131 83.413 103.15 83.4223C111.335 85.5949 113.592 86.2452 114.204 86.4823C114.479 86.5894 114.548 86.6506 114.273 86.8878C113.76 87.3085 111.863 88.7008 104.978 93.7728C104.947 93.7981 104.906 93.81 104.866 93.8057C104.826 93.8013 104.789 93.7813 104.764 93.7498C104.739 93.7184 104.727 93.6781 104.731 93.638C104.735 93.5978 104.755 93.561 104.787 93.5356Z" fill="#EA7963"/>
<path d="M97.1064 99.4261L101.214 79.3984C101.222 79.361 101.244 79.3281 101.275 79.3066C101.307 79.2852 101.345 79.2769 101.383 79.2837C101.421 79.2928 101.454 79.3161 101.475 79.3488C101.496 79.3815 101.504 79.4212 101.497 79.4596L97.3894 99.4873C97.3787 99.522 97.3553 99.5515 97.3239 99.5698C97.2925 99.5882 97.2554 99.5941 97.2199 99.5864C97.1843 99.5787 97.153 99.558 97.132 99.5283C97.1109 99.4986 97.1018 99.4622 97.1064 99.4261Z" fill="#EA7963"/>
</svg>
